<?xml version="1.0" encoding="UTF-8" standalone="no"?> <svg width="512" height="512" viewBox="0 0 512 512" fill="none" xmlns="http://www.w3.org/2000/svg">
<path d="M484.088 47.917H28.0879C21.4605 47.917 16.0879 53.2896 16.0879 59.917V371.917C16.0879 378.544 21.4605 383.917 28.0879 383.917H484.088C490.715 383.917 496.088 378.544 496.088 371.917V59.917C496.088 53.2896 490.715 47.917 484.088 47.917Z" fill="#7C84E8"/>
<path d="M320.088 383.917H192.088V439.917H320.088V383.917Z" fill="#898890"/>
<path d="M368.088 439.917H144.088V463.917H368.088V439.917Z" fill="#57565C"/>
<path d="M72.0879 223.917C80.9244 223.917 88.0879 216.754 88.0879 207.917C88.0879 199.08 80.9244 191.917 72.0879 191.917C63.2513 191.917 56.0879 199.08 56.0879 207.917C56.0879 216.754 63.2513 223.917 72.0879 223.917Z" fill="#FF9811"/>
<path d="M72.0879 127.917C80.9244 127.917 88.0879 120.754 88.0879 111.917C88.0879 103.08 80.9244 95.917 72.0879 95.917C63.2513 95.917 56.0879 103.08 56.0879 111.917C56.0879 120.754 63.2513 127.917 72.0879 127.917Z" fill="#FF9811"/>
<path d="M72.0879 319.917C80.9244 319.917 88.0879 312.754 88.0879 303.917C88.0879 295.08 80.9244 287.917 72.0879 287.917C63.2513 287.917 56.0879 295.08 56.0879 303.917C56.0879 312.754 63.2513 319.917 72.0879 319.917Z" fill="#FF9811"/>
<path d="M440.088 223.917C448.924 223.917 456.088 216.754 456.088 207.917C456.088 199.08 448.924 191.917 440.088 191.917C431.251 191.917 424.088 199.08 424.088 207.917C424.088 216.754 431.251 223.917 440.088 223.917Z" fill="#FF9811"/>
<path d="M440.088 319.917C448.924 319.917 456.088 312.754 456.088 303.917C456.088 295.08 448.924 287.917 440.088 287.917C431.251 287.917 424.088 295.08 424.088 303.917C424.088 312.754 431.251 319.917 440.088 319.917Z" fill="#FF9811"/>
<path d="M440.088 127.917C448.924 127.917 456.088 120.754 456.088 111.917C456.088 103.08 448.924 95.917 440.088 95.917C431.251 95.917 424.088 103.08 424.088 111.917C424.088 120.754 431.251 127.917 440.088 127.917Z" fill="#FF9811"/>
<path d="M356.452 246.376C360.113 252.105 362.042 258.769 362.008 265.568C361.973 272.367 359.977 279.011 356.258 284.703C352.54 290.395 347.257 294.892 341.044 297.655C334.832 300.417 327.954 301.327 321.237 300.276C323.355 308.6 322.366 317.41 318.455 325.057C314.544 332.704 307.98 338.663 299.992 341.819C292.003 344.974 283.139 345.11 275.058 342.2C266.977 339.29 260.234 333.534 256.091 326.01C251.943 333.526 245.2 339.273 237.121 342.178C229.043 345.082 220.184 344.945 212.2 341.791C204.216 338.638 197.653 332.684 193.741 325.043C189.828 317.402 188.832 308.598 190.94 300.276C184.222 301.332 177.341 300.425 171.126 297.664C164.911 294.903 159.625 290.405 155.905 284.712C152.186 279.018 150.19 272.371 150.158 265.57C150.126 258.77 152.059 252.104 155.725 246.376C147.885 244.633 140.874 240.269 135.848 234.004C130.823 227.74 128.084 219.948 128.084 211.917C128.084 203.886 130.823 196.094 135.848 189.829C140.874 183.565 147.885 179.201 155.725 177.458C152.064 171.729 150.135 165.065 150.17 158.267C150.204 151.468 152.201 144.824 155.919 139.133C159.638 133.441 164.921 128.945 171.133 126.183C177.346 123.421 184.223 122.511 190.94 123.563C188.824 115.239 189.814 106.429 193.726 98.7825C197.637 91.136 204.201 85.1773 212.19 82.022C220.178 78.8668 229.042 78.7312 237.123 81.6408C245.204 84.5504 251.948 90.3056 256.091 97.829C260.239 90.3144 266.982 84.568 275.06 81.6643C283.137 78.7606 291.996 78.8984 299.979 82.0519C307.962 85.2055 314.523 91.1588 318.436 98.7987C322.348 106.439 323.344 115.242 321.237 123.563C327.955 122.507 334.836 123.414 341.051 126.175C347.266 128.936 352.552 133.434 356.272 139.127C359.991 144.821 361.987 151.468 362.019 158.268C362.051 165.069 360.118 171.735 356.452 177.463C364.292 179.206 371.303 183.57 376.329 189.835C381.354 196.099 384.093 203.891 384.093 211.922C384.093 219.953 381.354 227.745 376.329 234.009C371.303 240.274 364.292 244.638 356.452 246.381V246.376Z" fill="#FFDA44"/>
<path d="M484 40H28C22.6973 40.0053 17.6133 42.1141 13.8637 45.8637C10.1141 49.6133 8.00529 54.6973 8 60V372C8.00529 377.303 10.1141 382.387 13.8637 386.136C17.6133 389.886 22.6973 391.995 28 392H184V432H144C141.878 432 139.843 432.843 138.343 434.343C136.843 435.843 136 437.878 136 440V464C136 466.122 136.843 468.157 138.343 469.657C139.843 471.157 141.878 472 144 472H368C370.122 472 372.157 471.157 373.657 469.657C375.157 468.157 376 466.122 376 464V440C376 437.878 375.157 435.843 373.657 434.343C372.157 432.843 370.122 432 368 432H328V392H484C489.303 391.995 494.387 389.886 498.136 386.136C501.886 382.387 503.995 377.303 504 372V60C503.995 54.6973 501.886 49.6133 498.136 45.8637C494.387 42.1141 489.303 40.0053 484 40ZM360 448V456H152V448H360ZM200 432V392H312V432H200ZM488 372C488 373.061 487.579 374.078 486.828 374.828C486.078 375.579 485.061 376 484 376H28C26.9391 376 25.9217 375.579 25.1716 374.828C24.4214 374.078 24 373.061 24 372V60C24 58.9391 24.4214 57.9217 25.1716 57.1716C25.9217 56.4214 26.9391 56 28 56H484C485.061 56 486.078 56.4214 486.828 57.1716C487.579 57.9217 488 58.9391 488 60V372Z" fill="black"/>
<path d="M391.81 216H417.38C419.267 221.338 422.981 225.837 427.864 228.701C432.747 231.566 438.486 232.612 444.066 231.654C449.646 230.697 454.708 227.798 458.357 223.469C462.006 219.141 464.008 213.662 464.008 208C464.008 202.339 462.006 196.859 458.357 192.531C454.708 188.202 449.646 185.303 444.066 184.346C438.486 183.388 432.747 184.434 427.864 187.299C422.981 190.164 419.267 194.662 417.38 200H390.28C388.562 194.157 385.644 188.736 381.713 184.084C377.782 179.431 372.925 175.65 367.45 172.98C369.816 166.254 370.496 159.05 369.43 152H400C402.122 152 404.157 151.157 405.657 149.657C407.157 148.157 408 146.122 408 144V120H417.38C419.267 125.338 422.981 129.837 427.864 132.701C432.747 135.566 438.486 136.612 444.066 135.654C449.646 134.697 454.708 131.798 458.357 127.469C462.006 123.141 464.008 117.662 464.008 112C464.008 106.339 462.006 100.859 458.357 96.5308C454.708 92.2023 449.646 89.3031 444.066 88.3457C438.486 87.3884 432.747 88.4344 427.864 91.2991C422.981 94.1637 419.267 98.6624 417.38 104H400C397.878 104 395.844 104.843 394.343 106.343C392.843 107.844 392 109.878 392 112V136H363.58C360.034 130.182 355.167 125.282 349.372 121.697C343.577 118.113 337.019 115.945 330.23 115.37V114.93C330.23 106.329 327.667 97.922 322.87 90.7826C318.073 83.6431 311.258 78.0942 303.294 74.8435C295.33 71.5928 286.579 70.7877 278.156 72.5307C269.733 74.2737 262.02 78.4859 256 84.6301C249.981 78.4859 242.267 74.2737 233.844 72.5307C225.421 70.7877 216.67 71.5928 208.706 74.8435C200.743 78.0942 193.928 83.6431 189.13 90.7826C184.333 97.922 181.771 106.329 181.77 114.93V115.37C174.981 115.945 168.423 118.113 162.628 121.697C156.834 125.282 151.966 130.182 148.42 136H120V112C120 109.878 119.157 107.844 117.657 106.343C116.157 104.843 114.122 104 112 104H94.6201C92.7329 98.6624 89.0195 94.1637 84.1363 91.2991C79.253 88.4344 73.5142 87.3884 67.9342 88.3457C62.3543 89.3031 57.2924 92.2023 53.6432 96.5308C49.9941 100.859 47.9927 106.339 47.9927 112C47.9927 117.662 49.9941 123.141 53.6432 127.469C57.2924 131.798 62.3543 134.697 67.9342 135.654C73.5142 136.612 79.253 135.566 84.1363 132.701C89.0195 129.837 92.7329 125.338 94.6201 120H104V144C104 146.122 104.843 148.157 106.343 149.657C107.844 151.157 109.878 152 112 152H142.57C141.504 159.05 142.184 166.254 144.55 172.98C139.076 175.65 134.218 179.431 130.287 184.084C126.356 188.736 123.438 194.157 121.72 200H94.6201C92.7329 194.662 89.0195 190.164 84.1363 187.299C79.253 184.434 73.5142 183.388 67.9342 184.346C62.3543 185.303 57.2924 188.202 53.6432 192.531C49.9941 196.859 47.9927 202.339 47.9927 208C47.9927 213.662 49.9941 219.141 53.6432 223.469C57.2924 227.798 62.3543 230.697 67.9342 231.654C73.5142 232.612 79.253 231.566 84.1363 228.701C89.0195 225.837 92.7329 221.338 94.6201 216H120.19C120.921 223.432 123.543 230.553 127.808 236.684C132.072 242.814 137.836 247.75 144.55 251.02C143.078 255.197 142.255 259.574 142.11 264H112C109.878 264 107.844 264.843 106.343 266.343C104.843 267.844 104 269.878 104 272V296H94.6201C92.7329 290.662 89.0195 286.164 84.1363 283.299C79.253 280.434 73.5142 279.388 67.9342 280.346C62.3543 281.303 57.2924 284.202 53.6432 288.531C49.9941 292.859 47.9927 298.339 47.9927 304C47.9927 309.662 49.9941 315.141 53.6432 319.469C57.2924 323.798 62.3543 326.697 67.9342 327.654C73.5142 328.612 79.253 327.566 84.1363 324.701C89.0195 321.837 92.7329 317.338 94.6201 312H112C114.122 312 116.157 311.157 117.657 309.657C119.157 308.157 120 306.122 120 304V280H144.59C147.389 287.835 152.382 294.7 158.975 299.777C165.567 304.853 173.48 307.926 181.77 308.63V309.07C181.771 317.672 184.333 326.078 189.13 333.218C193.928 340.357 200.743 345.906 208.706 349.157C216.67 352.407 225.421 353.213 233.844 351.47C242.267 349.727 249.981 345.514 256 339.37C262.02 345.514 269.733 349.727 278.156 351.47C286.579 353.213 295.33 352.407 303.294 349.157C311.258 345.906 318.073 340.357 322.87 333.218C327.667 326.078 330.23 317.672 330.23 309.07V308.63C338.52 307.926 346.433 304.853 353.026 299.777C359.618 294.7 364.611 287.835 367.41 280H392V304C392 306.122 392.843 308.157 394.343 309.657C395.844 311.157 397.878 312 400 312H417.38C419.267 317.338 422.981 321.837 427.864 324.701C432.747 327.566 438.486 328.612 444.066 327.654C449.646 326.697 454.708 323.798 458.357 319.469C462.006 315.141 464.008 309.662 464.008 304C464.008 298.339 462.006 292.859 458.357 288.531C454.708 284.202 449.646 281.303 444.066 280.346C438.486 279.388 432.747 280.434 427.864 283.299C422.981 286.164 419.267 290.662 417.38 296H408V272C408 269.878 407.157 267.844 405.657 266.343C404.157 264.843 402.122 264 400 264H369.89C369.745 259.574 368.922 255.197 367.45 251.02C374.164 247.75 379.928 242.814 384.193 236.684C388.457 230.553 391.08 223.432 391.81 216ZM440 200C441.582 200 443.129 200.469 444.445 201.348C445.76 202.227 446.786 203.477 447.391 204.939C447.997 206.4 448.155 208.009 447.846 209.561C447.538 211.113 446.776 212.538 445.657 213.657C444.538 214.776 443.113 215.538 441.561 215.846C440.009 216.155 438.4 215.997 436.939 215.391C435.477 214.786 434.227 213.76 433.348 212.445C432.469 211.129 432 209.582 432 208C432.003 205.879 432.847 203.846 434.346 202.346C435.846 200.847 437.879 200.003 440 200V200ZM440 104C441.582 104 443.129 104.469 444.445 105.348C445.76 106.227 446.786 107.477 447.391 108.939C447.997 110.4 448.155 112.009 447.846 113.561C447.538 115.113 446.776 116.538 445.657 117.657C444.538 118.776 443.113 119.538 441.561 119.846C440.009 120.155 438.4 119.997 436.939 119.391C435.477 118.786 434.227 117.76 433.348 116.445C432.469 115.129 432 113.582 432 112C432.003 109.879 432.847 107.846 434.346 106.346C435.846 104.847 437.879 104.003 440 104V104ZM72.0001 120C70.4178 120 68.8711 119.531 67.5555 118.652C66.2399 117.773 65.2146 116.523 64.6091 115.062C64.0036 113.6 63.8451 111.991 64.1538 110.439C64.4625 108.888 65.2244 107.462 66.3432 106.343C67.4621 105.224 68.8875 104.463 70.4394 104.154C71.9912 103.845 73.5998 104.004 75.0616 104.609C76.5234 105.215 77.7728 106.24 78.6518 107.556C79.5309 108.871 80.0001 110.418 80.0001 112C79.9972 114.121 79.1534 116.154 77.6537 117.654C76.1541 119.153 74.1209 119.997 72.0001 120V120ZM72.0001 216C70.4178 216 68.8711 215.531 67.5555 214.652C66.2399 213.773 65.2146 212.523 64.6091 211.062C64.0036 209.6 63.8451 207.991 64.1538 206.439C64.4625 204.888 65.2244 203.462 66.3432 202.343C67.4621 201.224 68.8875 200.463 70.4394 200.154C71.9912 199.845 73.5998 200.004 75.0616 200.609C76.5234 201.215 77.7728 202.24 78.6518 203.556C79.5309 204.871 80.0001 206.418 80.0001 208C79.9972 210.121 79.1534 212.154 77.6537 213.654C76.1541 215.153 74.1209 215.997 72.0001 216V216ZM72.0001 312C70.4178 312 68.8711 311.531 67.5555 310.652C66.2399 309.773 65.2146 308.523 64.6091 307.062C64.0036 305.6 63.8451 303.991 64.1538 302.439C64.4625 300.888 65.2244 299.462 66.3432 298.343C67.4621 297.224 68.8875 296.463 70.4394 296.154C71.9912 295.845 73.5998 296.004 75.0616 296.609C76.5234 297.215 77.7728 298.24 78.6518 299.556C79.5309 300.871 80.0001 302.418 80.0001 304C79.9972 306.121 79.1534 308.154 77.6537 309.654C76.1541 311.153 74.1209 311.997 72.0001 312V312ZM247.95 323.95C244.742 328.885 240.026 332.65 234.503 334.686C228.98 336.721 222.948 336.916 217.305 335.243C211.662 333.57 206.712 330.117 203.191 325.401C199.671 320.684 197.769 314.956 197.77 309.07C197.77 308.18 197.83 307.3 197.91 306.42C207.32 302.33 214.35 293.47 218.22 280.46C218.825 278.426 218.597 276.235 217.586 274.369C216.575 272.503 214.864 271.115 212.83 270.51C211.823 270.211 210.767 270.113 209.721 270.221C208.676 270.33 207.663 270.644 206.739 271.144C204.873 272.155 203.485 273.866 202.88 275.9C199.41 287.57 193.83 291.27 189.62 292.45H189.61C188.211 292.671 186.797 292.781 185.38 292.78C180.484 292.777 175.678 291.458 171.466 288.962C167.254 286.465 163.791 282.881 161.439 278.587C159.086 274.292 157.932 269.445 158.096 264.551C158.26 259.657 159.736 254.898 162.37 250.77C163.066 249.686 163.49 248.45 163.605 247.167C163.72 245.884 163.523 244.592 163.031 243.402C162.539 242.211 161.766 241.157 160.779 240.33C159.791 239.503 158.618 238.926 157.36 238.65C151.3 237.298 145.882 233.922 141.999 229.077C138.116 224.232 136 218.209 136 212C136 205.791 138.116 199.768 141.999 194.923C145.882 190.079 151.3 186.702 157.36 185.35C158.618 185.074 159.791 184.498 160.779 183.67C161.766 182.843 162.539 181.789 163.031 180.599C163.523 179.408 163.72 178.116 163.605 176.833C163.49 175.55 163.066 174.314 162.37 173.23C159.538 168.799 158.046 163.645 158.072 158.386C158.099 153.128 159.644 147.989 162.521 143.587C165.397 139.185 169.484 135.708 174.29 133.572C179.095 131.437 184.415 130.735 189.61 131.55H189.62C193.83 132.73 199.41 136.43 202.88 148.1C203.374 149.751 204.387 151.199 205.768 152.23C207.15 153.26 208.827 153.818 210.55 153.82C211.323 153.819 212.091 153.705 212.83 153.48C213.837 153.182 214.775 152.688 215.591 152.027C216.407 151.366 217.085 150.551 217.586 149.628C218.086 148.704 218.4 147.691 218.509 146.647C218.618 145.602 218.52 144.547 218.22 143.54C214.35 130.53 207.32 121.67 197.91 117.58C197.83 116.7 197.77 115.82 197.77 114.93C197.769 109.045 199.671 103.316 203.191 98.5996C206.712 93.883 211.662 90.4306 217.305 88.7573C222.948 87.0841 228.98 87.2796 234.503 89.3147C240.026 91.3498 244.742 95.1154 247.95 100.05V323.95ZM440 296C441.582 296 443.129 296.469 444.445 297.348C445.76 298.227 446.786 299.477 447.391 300.939C447.997 302.4 448.155 304.009 447.846 305.561C447.538 307.113 446.776 308.538 445.657 309.657C444.538 310.776 443.113 311.538 441.561 311.846C440.009 312.155 438.4 311.997 436.939 311.391C435.477 310.786 434.227 309.76 433.348 308.445C432.469 307.129 432 305.582 432 304C432.003 301.879 432.847 299.846 434.346 298.346C435.846 296.847 437.879 296.003 440 296V296ZM354.64 238.65C353.382 238.926 352.209 239.503 351.222 240.33C350.234 241.157 349.462 242.211 348.969 243.402C348.477 244.592 348.28 245.884 348.395 247.167C348.51 248.45 348.934 249.686 349.63 250.77C352.264 254.898 353.741 259.657 353.904 264.551C354.068 269.445 352.914 274.292 350.562 278.587C348.209 282.881 344.746 286.465 340.534 288.962C336.322 291.458 331.517 292.777 326.62 292.78C325.271 292.778 323.924 292.674 322.59 292.47C317.96 291.25 312.81 287.37 309.4 275.9C308.795 273.866 307.407 272.155 305.541 271.144C303.675 270.134 301.484 269.905 299.45 270.51C297.416 271.115 295.705 272.503 294.694 274.369C293.684 276.235 293.455 278.426 294.06 280.46C296.49 288.63 302.06 301.02 314.09 306.38C314.17 307.27 314.23 308.17 314.23 309.07C314.231 314.971 312.319 320.713 308.782 325.436C305.245 330.159 300.273 333.61 294.61 335.27C288.948 336.93 282.9 336.71 277.372 334.644C271.845 332.578 267.136 328.777 263.95 323.81V100.19C267.136 95.223 271.845 91.4218 277.372 89.3559C282.9 87.29 288.948 87.0707 294.61 88.7307C300.273 90.3907 305.245 93.8407 308.782 98.5639C312.319 103.287 314.231 109.029 314.23 114.93C314.23 115.83 314.17 116.73 314.09 117.62C302.06 122.98 296.49 135.37 294.06 143.54C293.761 144.547 293.662 145.602 293.771 146.647C293.88 147.691 294.194 148.704 294.694 149.628C295.195 150.551 295.873 151.366 296.689 152.027C297.505 152.688 298.443 153.182 299.45 153.48C300.189 153.705 300.958 153.819 301.73 153.82C303.454 153.818 305.13 153.26 306.512 152.23C307.893 151.199 308.906 149.751 309.4 148.1C312.81 136.63 317.96 132.75 322.59 131.53C323.924 131.326 325.271 131.222 326.62 131.22C331.517 131.223 336.322 132.542 340.534 135.039C344.746 137.536 348.209 141.119 350.562 145.413C352.914 149.708 354.068 154.556 353.904 159.449C353.741 164.343 352.264 169.103 349.63 173.23C348.934 174.314 348.51 175.55 348.395 176.833C348.28 178.116 348.477 179.408 348.969 180.599C349.462 181.789 350.234 182.843 351.222 183.67C352.209 184.498 353.382 185.074 354.64 185.35C360.7 186.702 366.118 190.079 370.001 194.923C373.884 199.768 376 205.791 376 212C376 218.209 373.884 224.232 370.001 229.077C366.118 233.922 360.7 237.298 354.64 238.65V238.65Z" fill="black"/>
<path d="M187.578 180.845C185.689 179.95 183.524 179.831 181.548 180.513C179.571 181.194 177.94 182.622 177.003 184.491C176.066 186.36 175.898 188.521 176.535 190.512C177.172 192.503 178.563 194.166 180.41 195.145C185.633 197.944 190.521 201.329 194.979 205.234C200.919 210.487 208 218.7 208 228C208 230.122 208.843 232.157 210.343 233.657C211.843 235.157 213.878 236 216 236C218.122 236 220.157 235.157 221.657 233.657C223.157 232.157 224 230.122 224 228C224 199.385 189.064 181.588 187.578 180.845Z" fill="black"/>
<path d="M334.06 191.239C331.408 191.898 328.809 192.752 326.283 193.796C317.547 178.496 301.424 179.345 292.422 183.845C290.54 184.796 289.11 186.452 288.442 188.452C287.775 190.452 287.924 192.635 288.857 194.526C289.79 196.416 291.432 197.862 293.426 198.549C295.419 199.236 297.604 199.107 299.503 198.192C301.353 197.395 303.349 196.991 305.363 197.006C307.54 197.082 310.324 197.767 312.687 202.282C299.934 213.642 296 229.713 296 239C296.001 241.112 296.839 243.137 298.33 244.632C299.821 246.127 301.844 246.97 303.955 246.977H304C306.109 246.972 308.131 246.137 309.628 244.652C311.125 243.167 311.977 241.153 312 239.044C312.012 237.987 312.583 213.101 337.94 206.761C339.985 206.234 341.739 204.92 342.819 203.106C343.899 201.291 344.218 199.123 343.706 197.074C343.194 195.025 341.892 193.262 340.085 192.169C338.278 191.076 336.113 190.742 334.06 191.239V191.239Z" fill="black"/>
</svg>
