<?xml version="1.0" encoding="UTF-8"?>
<!DOCTYPE svg PUBLIC "-//W3C//DTD SVG 1.1//EN" "http://www.w3.org/Graphics/SVG/1.1/DTD/svg11.dtd">
<!-- Creator: CorelDRAW -->
<svg xmlns="http://www.w3.org/2000/svg" xml:space="preserve" width="11.1111in" height="11.1111in" version="1.1" style="shape-rendering:geometricPrecision; text-rendering:geometricPrecision; image-rendering:optimizeQuality; fill-rule:evenodd; clip-rule:evenodd"
viewBox="0 0 11111 11111"
 xmlns:xlink="http://www.w3.org/1999/xlink">
 <defs>
  <style type="text/css">
   <![CDATA[
    .fil1 {fill:#CF5300}
    .fil0 {fill:#FF6600}
   ]]>
  </style>
 </defs>
 <g id="_623086288">
  <path class="fil0" d="M5556 0c3068,0 5555,2487 5555,5556 0,3068 -2487,5555 -5555,5555 -3069,0 -5556,-2487 -5556,-5555 0,-3069 2487,-5556 5556,-5556zm0 646c2711,0 4909,2198 4909,4910 0,2711 -2198,4909 -4909,4909 -2712,0 -4910,-2198 -4910,-4909 0,-2712 2198,-4910 4910,-4910z"/>
  <path class="fil1" d="M5556 11111c-3069,0 -5556,-2487 -5556,-5555 0,-3069 2487,-5556 5556,-5556l0 646c-2712,0 -4910,2198 -4910,4910 0,2711 2198,4909 4910,4909l0 646z"/>
 </g>
 <g id="Layer_x0020_1">
  <metadata id="CorelCorpID_0Corel-Layer"/>
  <path class="fil1" d="M8150 9111l-5189 0c-67,0 -120,-54 -120,-120l0 -6373c0,-67 53,-120 120,-120l907 0 0 557 -410 0c-33,0 -60,27 -60,60l0 5379c0,33 27,60 60,60l4195 0c33,0 60,-27 60,-60l0 -5379c0,-33 -27,-60 -60,-60l-410 0 0 -557 907 0c67,0 121,53 121,120l0 6373c0,66 -54,120 -121,120zm-1147 -5876l-2895 0c-67,0 -120,-54 -120,-120l0 -995c0,-66 53,-120 120,-120l2895 0c67,0 120,54 120,120l0 995c0,66 -53,120 -120,120zm-135 563c34,0 61,-27 61,-60 0,-33 -27,-60 -61,-60l-2625 0c-34,0 -60,27 -60,60 0,33 26,60 60,60l2625 0zm261 1457c33,0 60,-27 60,-60 0,-34 -27,-60 -60,-60l-1769 0c-33,0 -60,26 -60,60 0,33 27,60 60,60l1769 0zm0 -454c33,0 60,-27 60,-60 0,-33 -27,-60 -60,-60l-1769 0c-33,0 -60,27 -60,60 0,33 27,60 60,60l1769 0zm-885 -454c34,0 60,-27 60,-60 0,-33 -26,-60 -60,-60l-884 0c-33,0 -60,27 -60,60 0,33 27,60 60,60l884 0zm-1354 908c33,0 60,-27 60,-60l0 -908c0,-33 -27,-60 -60,-60l-908 0c-33,0 -60,27 -60,60l0 908c0,33 27,60 60,60l908 0zm-848 -120l0 -788 788 0 0 788 -788 0zm3087 2976c33,0 60,-27 60,-60 0,-33 -27,-60 -60,-60l-1769 0c-33,0 -60,27 -60,60 0,33 27,60 60,60l1769 0zm0 -454c33,0 60,-27 60,-60 0,-33 -27,-60 -60,-60l-1769 0c-33,0 -60,27 -60,60 0,33 27,60 60,60l1769 0zm-885 -454c34,0 60,-27 60,-60 0,-33 -26,-60 -60,-60l-884 0c-33,0 -60,27 -60,60 0,33 27,60 60,60l884 0zm-1354 908c33,0 60,-27 60,-60l0 -908c0,-33 -27,-60 -60,-60l-908 0c-33,0 -60,27 -60,60l0 908c0,33 27,60 60,60l908 0zm-848 -120l0 -788 788 0 0 788 -788 0zm3087 -1308c33,0 60,-27 60,-60 0,-33 -27,-60 -60,-60l-1769 0c-33,0 -60,27 -60,60 0,33 27,60 60,60l1769 0zm0 -454c33,0 60,-27 60,-60 0,-33 -27,-60 -60,-60l-1769 0c-33,0 -60,27 -60,60 0,33 27,60 60,60l1769 0zm-885 -454c34,0 60,-27 60,-60 0,-33 -26,-60 -60,-60l-884 0c-33,0 -60,27 -60,60 0,33 27,60 60,60l884 0zm-1354 908c33,0 60,-27 60,-60l0 -908c0,-33 -27,-60 -60,-60l-908 0c-33,0 -60,27 -60,60l0 908c0,33 27,60 60,60l908 0zm-848 -120l0 -788 788 0 0 788 -788 0zm-167 -3388c27,104 121,180 233,180l2895 0c112,0 206,-76 233,-180l357 0 0 5258 -4075 0 0 -5258 357 0z"/>
  <path class="fil0" d="M8150 9111l-2594 0 0 -557 2097 0c33,0 60,-27 60,-60l0 -5379c0,-33 -27,-60 -60,-60l-410 0 0 -557 907 0c67,0 121,53 121,120l0 6373c0,66 -54,120 -121,120zm-2594 -678l0 -322 1573 0c33,0 60,-27 60,-60 0,-33 -27,-60 -60,-60l-1573 0 0 -334 1573 0c33,0 60,-27 60,-60 0,-33 -27,-60 -60,-60l-1573 0 0 -334 688 0c34,0 60,-27 60,-60 0,-33 -26,-60 -60,-60l-688 0 0 -400 1573 0c33,0 60,-27 60,-60 0,-33 -27,-60 -60,-60l-1573 0 0 -334 1573 0c33,0 60,-27 60,-60 0,-33 -27,-60 -60,-60l-1573 0 0 -334 688 0c34,0 60,-27 60,-60 0,-33 -26,-60 -60,-60l-688 0 0 -400 1573 0c33,0 60,-27 60,-60 0,-34 -27,-60 -60,-60l-1573 0 0 -334 1573 0c33,0 60,-27 60,-60 0,-33 -27,-60 -60,-60l-1573 0 0 -334 688 0c34,0 60,-27 60,-60 0,-33 -26,-60 -60,-60l-688 0 0 -429 1312 0c34,0 61,-27 61,-60 0,-33 -27,-60 -61,-60l-1312 0 0 -323 1447 0c112,0 206,-76 233,-180l357 0 0 5258 -2037 0zm0 -5198l0 -1235 1447 0c67,0 120,54 120,120l0 995c0,66 -53,120 -120,120l-1447 0z"/>
 </g>
</svg>
